<svg xmlns="http://www.w3.org/2000/svg" width="1105" height="900" viewBox="0 0 1105 900" fill="none">
    <g opacity="0.9">
        <g opacity="0.14">
            <line x1="392.5" y1="44" x2="392.501" y2="900" stroke="#CED4E3"/>
            <line x1="224.5" y1="46" x2="224.501" y2="856" stroke="#CED4E3"/>
            <line x1="560.5" y1="94" x2="560.501" y2="875" stroke="#CED4E3"/>
            <line x1="953.5" y1="94" x2="953.5" y2="875" stroke="#CED4E3"/>
            <line x1="785.5" y1="18" x2="785.501" y2="900" stroke="#CED4E3"/>
            <line x1="925.5" y1="18" x2="925.5" y2="900" stroke="#CED4E3"/>
            <line x1="140.5" y1="90" x2="140.501" y2="706" stroke="#CED4E3"/>
            <line x1="476.5" y1="73" x2="476.501" y2="875" stroke="#CED4E3"/>
            <line x1="701.5" y1="74" x2="701.501" y2="899" stroke="#CED4E3"/>
            <line x1="308.5" y1="21" x2="308.501" y2="875" stroke="#CED4E3"/>
            <line x1="644.5" y1="17" x2="644.501" y2="900" stroke="#CED4E3"/>
            <line x1="869.5" y1="102" x2="869.501" y2="875" stroke="#CED4E3"/>
            <line x1="364.5" y1="72" x2="364.501" y2="856" stroke="#CED4E3"/>
            <line x1="196.5" y1="102" x2="196.501" y2="820" stroke="#CED4E3"/>
            <line x1="532.5" y1="37" x2="532.501" y2="900" stroke="#CED4E3"/>
            <line x1="757.5" y1="45" x2="757.5" y2="864" stroke="#CED4E3"/>
            <line x1="112.5" y1="128" x2="112.501" y2="707" stroke="#CED4E3"/>
            <line x1="448.5" y1="3" x2="448.501" y2="900" stroke="#CED4E3"/>
            <line x1="672.5" y1="17" x2="672.501" y2="875" stroke="#CED4E3"/>
            <line x1="280.5" y1="70" x2="280.501" y2="875" stroke="#CED4E3"/>
            <line x1="616.5" y1="73" x2="616.501" y2="900" stroke="#CED4E3"/>
            <line x1="841.5" y1="73" x2="841.501" y2="848" stroke="#CED4E3"/>
            <line x1="897.5" y1="73" x2="897.5" y2="848" stroke="#CED4E3"/>
            <line x1="336.5" y1="18" x2="336.501" y2="900" stroke="#CED4E3"/>
            <line x1="168.5" y1="71" x2="168.501" y2="900" stroke="#CED4E3"/>
            <line x1="504.5" y1="19" x2="504.501" y2="856" stroke="#CED4E3"/>
            <line x1="729.5" y1="45" x2="729.5" y2="828" stroke="#CED4E3"/>
            <line x1="420.5" y1="19" x2="420.501" y2="875" stroke="#CED4E3"/>
            <line x1="252.5" y1="40" x2="252.501" y2="900" stroke="#CED4E3"/>
            <line x1="588.5" y1="24" x2="588.501" y2="848" stroke="#CED4E3"/>
            <line x1="813.5" y1="-2.18557e-08" x2="813.501" y2="820" stroke="#CED4E3"/>
            <line x1="895.996" y1="408.5" x2="110.996" y2="408.5" stroke="#CED4E3"/>
            <line x1="895.996" y1="744.5" x2="138.996" y2="744.5" stroke="#CED4E3"/>
            <line x1="895.996" y1="576.5" x2="44.9961" y2="576.5" stroke="#CED4E3"/>
            <line x1="895.996" y1="492.5" x2="110.996" y2="492.499" stroke="#CED4E3"/>
            <line x1="979" y1="828.5" x2="139" y2="828.5" stroke="#CED4E3"/>
            <line x1="970" y1="660.5" x2="82" y2="660.5" stroke="#CED4E3"/>
            <line x1="895.996" y1="380.5" x2="138.996" y2="380.499" stroke="#CED4E3"/>
            <line x1="895.996" y1="716.5" x2="161.996" y2="716.5" stroke="#CED4E3"/>
            <line x1="958" y1="548.5" y2="548.5" stroke="#CED4E3"/>
            <line x1="952" y1="464.5" x2="139" y2="464.5" stroke="#CED4E3"/>
            <line x1="958" y1="800.5" x2="139" y2="800.5" stroke="#CED4E3"/>
            <line x1="895.996" y1="632.5" x2="110.996" y2="632.5" stroke="#CED4E3"/>
            <line x1="923" y1="352.5" x2="74" y2="352.5" stroke="#CED4E3"/>
            <line x1="942" y1="324.5" x2="139" y2="324.5" stroke="#CED4E3"/>
            <line x1="895.996" y1="296.5" x2="138.996" y2="296.499" stroke="#CED4E3"/>
            <line x1="958" y1="268.5" x2="81" y2="268.5" stroke="#CED4E3"/>
            <line x1="995" y1="240.5" x2="98" y2="240.5" stroke="#CED4E3"/>
            <line x1="1043" y1="212.5" x2="108" y2="212.5" stroke="#CED4E3"/>
            <line x1="995" y1="184.5" x2="103" y2="184.5" stroke="#CED4E3"/>
            <line x1="896" y1="156.5" x2="140" y2="156.5" stroke="#CED4E3"/>
            <line x1="920" y1="128.5" x2="60" y2="128.5" stroke="#CED4E3"/>
            <line x1="952" y1="100.5" x2="112" y2="100.5" stroke="#CED4E3"/>
            <line x1="1002" y1="72.5" x2="209" y2="72.5" stroke="#CED4E3"/>
            <line x1="896" y1="44.5" x2="289" y2="44.5001" stroke="#CED4E3"/>
            <line x1="942" y1="688.5" x2="84" y2="688.5" stroke="#CED4E3"/>
            <line x1="920" y1="520.5" x2="84" y2="520.5" stroke="#CED4E3"/>
            <line x1="933" y1="856.5" x2="252" y2="856.5" stroke="#CED4E3"/>
            <line x1="995" y1="436.5" x2="111" y2="436.5" stroke="#CED4E3"/>
            <line x1="895.996" y1="772.5" x2="34.9961" y2="772.499" stroke="#CED4E3"/>
            <line x1="1023" y1="604.5" x2="77" y2="604.5" stroke="#CED4E3"/>
        </g>
        <line x1="349.225" y1="389.892" x2="500.225" y2="704.892" stroke="white" stroke-width="0.5" stroke-dasharray="5 5"/>
        <line x1="650.824" y1="389.822" x2="798.824" y2="243.822" stroke="white" stroke-width="0.5" stroke-dasharray="5 5"/>
        <line x1="730" y1="44.25" x2="477" y2="44.25" stroke="white" stroke-width="0.5"/>
        <line x1="476.75" y1="67" x2="476.75" y2="44" stroke="white" stroke-width="0.5"/>
        <line x1="729.75" y1="67" x2="729.75" y2="44" stroke="white" stroke-width="0.5"/>
        <line x1="141.25" y1="324" x2="141.25" y2="548" stroke="white" stroke-width="0.5"/>
        <line x1="164" y1="548.25" x2="141" y2="548.25" stroke="white" stroke-width="0.5"/>
        <line x1="164" y1="324.25" x2="141" y2="324.25" stroke="white" stroke-width="0.5"/>
    </g>
    <path d="M349.102 630.095L349.103 631.095L350.099 631.095L350.102 630.099L349.102 630.095ZM326.428 576.447L325.718 577.152L326.428 576.447ZM349.073 630.095L349.072 629.095L348.073 629.096L348.073 630.095L349.073 630.095ZM349.072 705.25L349.068 706.25L350.072 706.254L350.072 705.25L349.072 705.25ZM296.168 683.379L295.458 684.083L296.168 683.379ZM273.534 629.713V628.713H272.538L272.534 629.709L273.534 629.713ZM273.562 629.713V630.713H274.563L274.562 629.713L273.562 629.713ZM273.508 554.615L273.511 553.615L272.507 553.612L272.508 554.616L273.508 554.615ZM350.102 630.099C350.171 610.126 341.181 589.881 327.137 575.742L325.718 577.152C339.421 590.947 348.169 610.693 348.102 630.092L350.102 630.099ZM349.074 631.095L349.103 631.095L349.101 629.095L349.072 629.095L349.074 631.095ZM350.072 705.25L350.073 630.095L348.073 630.095L348.072 705.249L350.072 705.25ZM295.458 684.083C309.515 698.256 329.127 706.17 349.068 706.25L349.076 704.25C329.645 704.172 310.547 696.456 296.878 682.674L295.458 684.083ZM272.534 629.709C272.45 649.682 281.424 669.933 295.458 684.083L296.878 682.674C283.186 668.869 274.452 649.117 274.534 629.717L272.534 629.709ZM273.562 628.713H273.534V630.713H273.562V628.713ZM272.508 554.616L272.562 629.714L274.562 629.713L274.508 554.615L272.508 554.616ZM327.137 575.742C313.07 561.58 293.452 553.68 273.511 553.615L273.505 555.615C292.936 555.679 312.039 563.38 325.718 577.152L327.137 575.742Z" fill="#CED4E3"/>
    <rect x="349" y="392" width="453" height="313" stroke="#CED4E3" stroke-width="2"/>
    <rect x="802" y="392" width="122" height="464" stroke="#CED4E3" stroke-width="2"/>
    <path d="M500.146 241.24C500.146 157.805 567.783 90.1677 651.218 90.1677V241.24H500.146Z" stroke="#CED4E3" stroke-width="2"/>
    <path d="M651.219 90.1677C734.654 90.1677 802.292 157.805 802.291 241.24L651.219 241.24L651.219 90.1677Z" stroke="#CED4E3" stroke-width="2"/>
    <path d="M349.073 241.24C265.638 241.24 198 308.878 198 392.313H349.073V241.24Z" stroke="#CED4E3" stroke-width="2"/>
    <path d="M198 392.313C198 475.748 265.638 543.386 349.073 543.386V392.313H198Z" stroke="#CED4E3" stroke-width="2"/>
    <rect x="349.073" y="241.24" width="453.218" height="151.073" stroke="#CED4E3" stroke-width="2"/>
    <path d="M500.145 392.313C500.145 308.878 432.508 241.24 349.073 241.24V392.313H500.145Z" stroke="#CED4E3" stroke-width="2"/>
    <path d="M651.218 392.313C734.653 392.313 802.291 324.675 802.291 241.24H651.218V392.313Z" stroke="#CED4E3" stroke-width="2"/>
    <path d="M500.145 392.313C328.807 392.313 198 533.923 198 705.25H500.145V392.313Z" stroke="#CED4E3" stroke-width="2"/>
    <path d="M651.218 241.24C567.783 241.24 500.145 308.878 500.145 392.313L651.218 392.313L651.218 241.24Z" stroke="#CED4E3" stroke-width="2"/>
    <path d="M877.827 165.703C919.54 165.703 953.357 199.52 953.364 241.24H877.827V165.703Z" stroke="#CED4E3" stroke-width="2"/>
    <rect x="802" y="241" width="122" height="151" stroke="#CED4E3" stroke-width="2"/>
    <path d="M349.073 705.249V704.249H348.073V705.249H349.073ZM500.145 856.322V857.322H501.145V856.322H500.145ZM500.145 705.249H501.145V704.249H500.145V705.249ZM651.219 856.323V857.323H652.219V856.323H651.219ZM500.146 705.25V704.25H499.146V705.25H500.146ZM500.146 856.323H499.146V857.323H500.146V856.323ZM348.073 705.249C348.073 789.236 416.158 857.322 500.145 857.322V855.322C417.263 855.322 350.073 788.132 350.073 705.249H348.073ZM500.145 704.249H349.073V706.249H500.145V704.249ZM501.145 856.322V705.249H499.145V856.322H501.145ZM652.219 856.323C652.219 771.74 584.729 704.25 500.146 704.25V706.25C583.625 706.25 650.219 772.844 650.219 856.323H652.219ZM500.146 857.323H651.219V855.323H500.146V857.323ZM499.146 705.25V856.323H501.146V705.25H499.146Z" fill="#CED4E3"/>
    <path d="M499.606 819.634C520.762 819.634 537.913 802.483 537.913 781.326C537.913 760.17 520.762 743.019 499.606 743.019C478.449 743.019 461.298 760.17 461.298 781.326C461.298 802.483 478.449 819.634 499.606 819.634Z" stroke="#CED4E3" stroke-width="2"/>
    <path d="M349.073 241.24C349.073 158.997 417.902 90.1677 500.145 90.1677V241.24H349.073Z" stroke="#CED4E3" stroke-width="2"/>
    <path d="M802.292 241.24C802.292 199.527 836.108 165.71 877.828 165.704L877.828 241.24L802.292 241.24Z" stroke="#CED4E3" stroke-width="2"/>
    <path d="M748.343 187.824L749.055 187.121L749.754 187.828L749.051 188.531L748.343 187.824ZM726.987 133.939L727.987 133.944L727.987 133.944L726.987 133.939ZM748.345 81.0009L747.642 80.2897L748.349 79.5908L749.052 80.2938L748.345 81.0009ZM801.757 134.412L802.464 133.705L803.171 134.412L802.464 135.119L801.757 134.412ZM801.756 134.412L801.052 135.122L800.34 134.415L801.049 133.705L801.756 134.412ZM823.123 188.104L822.123 188.108L823.123 188.104ZM801.755 241.236L802.465 241.941L801.758 242.653L801.048 241.943L801.755 241.236ZM748.343 187.824L747.636 188.531L746.929 187.824L747.636 187.117L748.343 187.824ZM747.632 188.527C733.517 174.252 725.873 153.967 725.987 133.933L727.987 133.944C727.876 153.49 735.34 173.251 749.055 187.121L747.632 188.527ZM725.987 133.933C726.101 113.91 733.357 94.4104 747.642 80.2897L749.048 81.7121C735.184 95.4163 728.099 114.387 727.987 133.944L725.987 133.933ZM749.052 80.2938L802.464 133.705L801.049 135.119L747.638 81.708L749.052 80.2938ZM802.464 135.119L802.463 135.119L801.049 133.705L801.049 133.705L802.464 135.119ZM802.461 133.703C816.716 147.86 824.055 168.083 824.123 188.101L822.123 188.108C822.057 168.545 814.88 148.855 801.052 135.122L802.461 133.703ZM824.123 188.101C824.19 208.141 816.61 227.703 802.465 241.941L801.046 240.531C814.797 226.69 822.188 207.648 822.123 188.108L824.123 188.101ZM801.048 241.943L747.636 188.531L749.05 187.117L802.462 240.529L801.048 241.943ZM747.636 187.117L747.636 187.117L749.051 188.531L749.05 188.531L747.636 187.117Z" fill="#CED4E3"/>
    <path d="M854.611 297.7C868.387 311.908 888.247 319.882 908.035 320.185C927.824 320.488 947.205 313.724 961.411 299.944L909.134 245.422L854.611 297.7Z" stroke="#CED4E3" stroke-width="2"/>
    <path d="M909.136 245.423C895.489 231.091 875.689 223.415 855.905 222.932C836.12 222.45 816.665 229.528 802.335 243.178L854.612 297.701L909.136 245.423Z" stroke="#CED4E3" stroke-width="2"/>
    <path d="M801.212 392.314C634.936 392.314 500.146 532.484 500.146 705.251H801.212V392.314Z" stroke="#CED4E3" stroke-width="2"/>
    <path d="M1103.44 705.25C1103.44 538.44 968.164 392.313 801.292 392.313V705.25H1103.44Z" stroke="#CED4E3" stroke-width="2"/>
    <rect x="651.218" y="705.25" width="302.145" height="151.073" stroke="#CED4E3" stroke-width="2"/>
    <path d="M802.291 392.313H803.291V391.313H802.291V392.313ZM721.359 473.245H720.359V474.245H721.359V473.245ZM802.291 473.245V474.245H803.291V473.245H802.291ZM721.359 473.246V472.246H720.359V473.246H721.359ZM802.291 554.177V555.177H803.291V554.177H802.291ZM802.291 473.246H803.291V472.246H802.291V473.246ZM802.291 391.313C757.042 391.313 720.359 427.996 720.359 473.245H722.359C722.359 429.1 758.146 393.313 802.291 393.313V391.313ZM803.291 473.245V392.313H801.291V473.245H803.291ZM721.359 474.245H802.291V472.245H721.359V474.245ZM720.359 473.246C720.359 518.495 757.041 555.177 802.291 555.177V553.177C758.146 553.177 722.359 517.391 722.359 473.246H720.359ZM802.291 472.246H721.359V474.246H802.291V472.246ZM803.291 554.177V473.246H801.291V554.177H803.291Z" fill="#CED4E3"/>
    <path d="M802.291 511.013C781.134 511.013 763.444 493.862 763.444 472.705C763.444 451.548 781.134 435.477 802.291 435.477C802.291 435.477 802.291 513.171 802.291 511.013Z" stroke="#CED4E3" stroke-width="2"/>
    <path d="M953.364 705.25V706.25H954.361L954.364 705.254L953.364 705.25ZM802.292 554.177L802.295 553.177L801.292 553.174V554.177H802.292ZM953.364 705.25V704.25H952.364V705.25H953.364ZM953.364 856.321L953.361 857.321L954.364 857.325V856.321H953.364ZM802.291 705.248V704.248H801.295L801.292 705.245L802.291 705.248ZM802.292 705.248V706.248H803.292V705.248H802.292ZM954.364 705.254C954.659 619.173 888.357 553.483 802.295 553.177L802.288 555.177C887.264 555.479 952.655 620.289 952.364 705.247L954.364 705.254ZM953.364 706.25H953.364V704.25H953.364V706.25ZM954.364 856.321L954.364 705.25H952.364L952.364 856.321H954.364ZM801.292 705.245C800.997 791.325 867.299 857.016 953.361 857.321L953.368 855.321C868.392 855.02 803.001 790.209 803.291 705.252L801.292 705.245ZM802.292 704.248H802.291V706.248H802.292V704.248ZM801.292 554.177V705.248H803.292V554.177H801.292Z" fill="#CED4E3"/>
    <path d="M802.291 554.178C719.147 553.907 651.518 622.409 651.218 705.25H802.291V554.178Z" stroke="#CED4E3" stroke-width="2"/>
    <path d="M877.288 744.096C898.445 744.096 915.596 726.945 915.596 705.789C915.596 684.632 898.445 667.481 877.288 667.481C856.131 667.481 838.98 684.632 838.98 705.789C838.98 726.945 856.131 744.096 877.288 744.096Z" stroke="#CED4E3" stroke-width="2"/>
    <path d="M560 704.999V705.999H561V704.999H560ZM501.721 644.64H500.721V645.626L501.707 645.64L501.721 644.64ZM501.721 704.999V703.999H500.721V704.999H501.721ZM501.721 705V706H502.721V705H501.721ZM442.609 705H441.609V706H442.609V705ZM500.888 644.64L500.902 645.64L501.888 645.626V644.64H500.888ZM500.888 644.634V643.634H499.888V644.634H500.888ZM501.339 644.636L501.331 645.636L501.346 645.635L501.339 644.636ZM501.721 644.634H502.721V643.634H501.721V644.634ZM561 704.999C561 671.416 534.563 644.102 501.735 643.64L501.707 645.64C533.404 646.086 559 672.472 559 704.999H561ZM501.721 705.999H560V703.999H501.721V705.999ZM502.721 705V704.999H500.721V705H502.721ZM442.609 706H501.721V704H442.609V706ZM500.874 643.64C468.046 644.103 441.609 671.417 441.609 705H443.609C443.609 672.473 469.205 646.087 500.902 645.64L500.874 643.64ZM499.888 644.634V644.64H501.888V644.634H499.888ZM501.347 643.636C501.194 643.634 501.041 643.634 500.888 643.634V645.634C501.036 645.634 501.184 645.634 501.331 645.635L501.347 643.636ZM501.721 643.634C501.591 643.634 501.462 643.635 501.333 643.636L501.346 645.635C501.47 645.635 501.596 645.634 501.721 645.634V643.634ZM502.721 644.64V644.634H500.721V644.64H502.721Z" fill="#CED4E3"/>
    <path d="M500.145 554.178C416.71 554.178 349.073 621.815 349.073 705.25L500.145 705.25L500.145 554.178Z" stroke="#CED4E3" stroke-width="2"/>
    <path d="M500.146 241.238H499.146V242.233L500.14 242.238L500.146 241.238ZM553.261 219.396L553.964 220.107L553.261 219.396ZM500.146 165.703V164.703L499.146 164.703V165.703L500.146 165.703ZM575.682 165.703L576.682 165.708L576.687 164.703L575.682 164.703V165.703ZM500.145 165.709H501.145V164.714L500.151 164.709L500.145 165.709ZM447.03 187.551L447.733 188.262L447.03 187.551ZM500.145 241.244V242.244H501.145V241.244H500.145ZM424.609 241.244L423.609 241.239L423.604 242.244H424.609V241.244ZM500.14 242.238C520.459 242.346 539.53 234.379 553.964 220.107L552.558 218.685C538.492 232.593 519.927 240.343 500.151 240.238L500.14 242.238ZM499.146 165.703L499.146 241.238H501.146L501.146 165.703L499.146 165.703ZM575.682 164.703L500.146 164.703V166.703L575.682 166.703V164.703ZM553.964 220.107C568.407 205.826 576.575 186.001 576.682 165.708L574.682 165.698C574.578 185.471 566.616 204.784 552.558 218.685L553.964 220.107ZM500.151 164.709C479.832 164.601 460.761 172.567 446.327 186.84L447.733 188.262C461.799 174.353 480.364 166.604 500.14 166.709L500.151 164.709ZM501.145 241.244V165.709H499.145V241.244H501.145ZM424.609 242.244H500.145V240.244H424.609V242.244ZM446.327 186.84C431.884 201.121 423.716 220.946 423.609 241.239L425.609 241.249C425.713 221.476 433.675 202.163 447.733 188.262L446.327 186.84Z" fill="#CED4E3"/>
    <path d="M651.219 705.25C651.219 621.815 583.581 554.177 500.146 554.177V705.25H651.219Z" stroke="#CED4E3" stroke-width="2"/>
    <path d="M892.26 503.103L892.923 503.852L893.677 503.185L893.005 502.435L892.26 503.103ZM858.788 487.45L858.842 486.452L858.788 487.45ZM892.26 503.103L891.598 502.354L890.848 503.017L891.512 503.767L892.26 503.103ZM924.203 539.133L924.863 539.883L925.617 539.22L924.951 538.469L924.203 539.133ZM889.573 550.693L889.636 549.695L889.573 550.693ZM856.224 535.042L855.559 534.294L854.816 534.955L855.473 535.702L856.224 535.042ZM856.224 535.041L856.889 535.789L857.635 535.125L856.972 534.378L856.224 535.041ZM824.282 499.013L823.615 498.268L822.874 498.932L823.534 499.676L824.282 499.013ZM893.005 502.435C884.393 492.83 871.684 487.151 858.842 486.452L858.733 488.449C871.087 489.122 883.284 494.59 891.516 503.771L893.005 502.435ZM892.923 503.852L892.923 503.852L891.598 502.354L891.598 502.354L892.923 503.852ZM924.951 538.469L893.008 502.44L891.512 503.767L923.454 539.796L924.951 538.469ZM889.51 551.691C902.35 552.508 915.185 548.405 924.863 539.883L923.542 538.382C914.283 546.534 901.978 550.48 889.636 549.695L889.51 551.691ZM855.473 535.702C864.008 545.397 876.691 550.877 889.51 551.691L889.636 549.695C877.272 548.909 865.112 543.624 856.974 534.381L855.473 535.702ZM855.56 534.294L855.559 534.294L856.888 535.789L856.889 535.789L855.56 534.294ZM823.534 499.676L855.476 535.705L856.972 534.378L825.03 498.349L823.534 499.676ZM858.842 486.452C846.012 485.753 833.228 489.648 823.615 498.268L824.95 499.757C834.122 491.532 846.368 487.775 858.733 488.449L858.842 486.452Z" fill="#CED4E3"/>
    <path d="M926.271 607.346L925.586 608.074L926.31 608.756L926.996 608.035L926.271 607.346ZM911.725 573.503L910.725 573.534L911.725 573.503ZM926.272 607.345L926.959 606.619L926.234 605.932L925.547 606.656L926.272 607.345ZM961.233 640.454L960.546 641.18L961.268 641.863L961.955 641.146L961.233 640.454ZM973.928 606.353L972.929 606.374L973.928 606.353ZM959.386 572.386L960.077 571.664L959.35 570.968L958.659 571.7L959.386 572.386ZM959.385 572.388L958.697 573.114L959.424 573.802L960.111 573.074L959.385 572.388ZM924.422 539.278L925.11 538.552L924.381 537.862L923.694 538.593L924.422 539.278ZM926.956 606.617C917.985 598.181 913.102 585.854 912.724 573.473L910.725 573.534C911.117 586.37 916.176 599.225 925.586 608.074L926.956 606.617ZM925.547 606.656L925.546 606.657L926.996 608.035L926.997 608.033L925.547 606.656ZM961.921 639.728L926.959 606.619L925.584 608.071L960.546 641.18L961.921 639.728ZM972.929 606.374C973.194 618.753 969.035 630.867 960.512 639.762L961.955 641.146C970.889 631.823 975.204 619.176 974.928 606.331L972.929 606.374ZM958.694 573.109C967.599 581.637 972.663 594.006 972.929 606.374L974.928 606.331C974.652 593.475 969.395 580.588 960.077 571.664L958.694 573.109ZM960.111 573.074L960.112 573.073L958.659 571.7L958.658 571.701L960.111 573.074ZM923.735 540.004L958.697 573.114L960.072 571.661L925.11 538.552L923.735 540.004ZM912.724 573.473C912.347 561.114 916.696 548.947 925.15 539.963L923.694 538.593C914.856 547.984 910.333 560.675 910.725 573.534L912.724 573.473Z" fill="#CED4E3"/>
</svg>